<?xml version="1.0" standalone="no"?><!DOCTYPE svg PUBLIC "-//W3C//DTD SVG 1.1//EN" "http://www.w3.org/Graphics/SVG/1.1/DTD/svg11.dtd"><svg t="1656861659955" class="icon" viewBox="0 0 1024 1024" xmlns="http://www.w3.org/2000/svg" p-id="5949" xmlns:xlink="http://www.w3.org/1999/xlink" width="32" height="32"><defs><style type="text/css"></style></defs><path d="M133.31 296.552h757.207c19.782 0 35.951-16.169 35.951-35.95 0-19.782-15.997-35.952-35.95-35.952H133.31c-19.782 0-35.951 16.17-35.951 35.951 0 19.782 16.17 35.951 35.95 35.951zM890.517 476.135H133.311c-19.782 0-35.951 16.17-35.951 35.951 0 19.782 16.17 35.951 35.95 35.951h757.207c19.782 0 35.951-16.17 35.951-35.951 0-19.782-16.17-35.95-35.95-35.95zM890.517 727.448H133.311c-19.782 0-35.951 15.997-35.951 35.95s16.17 35.952 35.95 35.952h757.207c19.782 0 35.951-15.998 35.951-35.951s-16.17-35.951-35.95-35.951z" p-id="5950"></path></svg>