<?xml version="1.0" standalone="no"?><!DOCTYPE svg PUBLIC "-//W3C//DTD SVG 1.1//EN" "http://www.w3.org/Graphics/SVG/1.1/DTD/svg11.dtd"><svg t="1656860652501" class="icon" viewBox="0 0 1024 1024" xmlns="http://www.w3.org/2000/svg" p-id="1716" xmlns:xlink="http://www.w3.org/1999/xlink" width="32" height="32"><defs><style type="text/css"></style></defs><path d="M512 64C264.576 64 64 264.576 64 512s200.576 448 448 448 448-200.576 448-448S759.424 64 512 64zM717.952 438.592l-256.448 256.256c-8 8.064-19.328 10.752-29.632 8.576-10.496 2.816-22.016 0.192-30.272-8.064L264.96 558.72C252.672 546.496 253.312 526.08 265.344 513.92c12.544-12.48 32.384-12.864 44.864-0.448l121.088 121.152 241.344-241.344c12.416-12.544 33.152-12.16 45.312 0C730.432 405.76 730.496 425.92 717.952 438.592z" p-id="1717"></path></svg>