<svg width="17" height="17" viewBox="0 0 17 17" fill="none" xmlns="http://www.w3.org/2000/svg">
<path d="M4.37695 9.66895C4.37695 8.71973 4.56738 7.8291 4.94824 6.99707C5.33496 6.16504 5.86816 5.50586 6.54785 5.01953C7.22754 4.5332 7.9834 4.29004 8.81543 4.29004C9.44824 4.29004 9.99316 4.43945 10.4502 4.73828C10.9131 5.03711 11.2559 5.45312 11.4785 5.98633H11.54L11.918 4.4834H12.9375L11.918 8.93066C11.6543 10.0615 11.5225 10.8701 11.5225 11.3564C11.5225 11.9365 11.7832 12.2266 12.3047 12.2266C12.8086 12.2266 13.2832 12.0127 13.7285 11.585C14.1797 11.1572 14.5371 10.5713 14.8008 9.82715C15.0703 9.07715 15.2051 8.25098 15.2051 7.34863C15.2051 6.24707 14.9707 5.27734 14.502 4.43945C14.0391 3.5957 13.3682 2.94531 12.4893 2.48828C11.6162 2.03125 10.585 1.80273 9.39551 1.80273C7.9248 1.80273 6.62695 2.12793 5.50195 2.77832C4.37695 3.42871 3.49805 4.36328 2.86523 5.58203C2.23242 6.79492 1.91602 8.15137 1.91602 9.65137C1.91602 10.8232 2.15039 11.8545 2.61914 12.7451C3.09375 13.6357 3.7793 14.3242 4.67578 14.8105C5.57227 15.2969 6.63574 15.54 7.86621 15.54C8.77441 15.54 9.66797 15.4287 10.5469 15.2061C11.4258 14.9834 12.3193 14.626 13.2275 14.1338L13.5879 14.8896C12.6387 15.4287 11.6982 15.8184 10.7666 16.0586C9.84082 16.3047 8.86523 16.4277 7.83984 16.4277C6.45703 16.4277 5.24121 16.1465 4.19238 15.584C3.14355 15.0273 2.33496 14.2246 1.7666 13.1758C1.2041 12.1328 0.922852 10.958 0.922852 9.65137C0.922852 8.03418 1.27734 6.55762 1.98633 5.22168C2.70117 3.87988 3.70312 2.82813 4.99219 2.06641C6.28125 1.30469 7.74316 0.923828 9.37793 0.923828C10.7783 0.923828 11.9883 1.1875 13.0078 1.71484C14.0332 2.24219 14.8154 2.99219 15.3545 3.96484C15.8994 4.93164 16.1719 6.05371 16.1719 7.33105C16.1719 8.40332 15.999 9.37891 15.6533 10.2578C15.3135 11.1309 14.8389 11.8164 14.2295 12.3145C13.6201 12.8066 12.9492 13.0527 12.2168 13.0527C11.7188 13.0527 11.332 12.918 11.0566 12.6484C10.7812 12.373 10.6436 11.9951 10.6436 11.5146C10.6436 11.2041 10.6641 10.958 10.7051 10.7764H10.6523C10.3594 11.4209 9.89648 11.9629 9.26367 12.4023C8.63086 12.8359 7.97754 13.0527 7.30371 13.0527C6.38379 13.0527 5.66602 12.7539 5.15039 12.1562C4.63477 11.5527 4.37695 10.7236 4.37695 9.66895ZM11.1094 7.2959C11.1094 6.64551 10.8984 6.12109 10.4766 5.72266C10.0605 5.32422 9.51562 5.125 8.8418 5.125C8.17969 5.125 7.59375 5.32715 7.08398 5.73145C6.58008 6.13574 6.18164 6.68945 5.88867 7.39258C5.60156 8.0957 5.45801 8.84863 5.45801 9.65137C5.45801 10.4717 5.63672 11.1016 5.99414 11.541C6.35156 11.9805 6.86133 12.2002 7.52344 12.2002C7.97461 12.2002 8.42578 12.0566 8.87695 11.7695C9.33398 11.4824 9.73242 11.084 10.0723 10.5742C10.418 10.0586 10.6758 9.4668 10.8457 8.79883C11.0215 8.13086 11.1094 7.62988 11.1094 7.2959Z" fill="white"/>
</svg>
