<svg width="30" height="30" viewBox="0 0 30 30" fill="none" xmlns="http://www.w3.org/2000/svg">
<rect width="30" height="30" rx="15" fill="black" fill-opacity="0.5"/>
<path d="M16.0312 20.9375C16.3438 20.625 16.3125 20.1562 16.0312 19.8438L12.25 16.25H21.25C21.6562 16.25 22 15.9375 22 15.5V14.5C22 14.0938 21.6562 13.75 21.25 13.75H12.25L16.0312 10.1875C16.3125 9.875 16.3438 9.40625 16.0312 9.09375L15.3438 8.40625C15.0625 8.125 14.5625 8.125 14.2812 8.40625L8.21875 14.5C7.90625 14.7812 7.90625 15.25 8.21875 15.5312L14.2812 21.625C14.5625 21.9062 15.0312 21.9062 15.3438 21.625L16.0312 20.9375Z" fill="white"/>
</svg>
