<svg width="21" height="18" viewBox="0 0 21 18" fill="none" xmlns="http://www.w3.org/2000/svg">
<path d="M20.5 4.625C20.5 3.60938 19.6406 2.75 18.625 2.75H15.1875L14.6797 1.5C14.4062 0.757812 13.7031 0.25 12.9219 0.25H8.03906C7.25781 0.25 6.55469 0.757812 6.28125 1.5L5.8125 2.75H2.375C1.32031 2.75 0.5 3.60938 0.5 4.625V15.875C0.5 16.9297 1.32031 17.75 2.375 17.75H18.625C19.6406 17.75 20.5 16.9297 20.5 15.875V4.625ZM15.1875 10.25C15.1875 12.8672 13.0781 14.9375 10.5 14.9375C7.88281 14.9375 5.8125 12.8672 5.8125 10.25C5.8125 7.67188 7.88281 5.5625 10.5 5.5625C13.0781 5.5625 15.1875 7.67188 15.1875 10.25ZM13.9375 10.25C13.9375 8.375 12.375 6.8125 10.5 6.8125C8.58594 6.8125 7.0625 8.375 7.0625 10.25C7.0625 12.1641 8.58594 13.6875 10.5 13.6875C12.375 13.6875 13.9375 12.1641 13.9375 10.25Z" fill="white"/>
</svg>
