<svg width="17" height="12" viewBox="0 0 17 12" fill="currentColor" xmlns="http://www.w3.org/2000/svg">
<path d="M16.1875 3.96875C15.4688 4.53125 14.5625 5.21875 11.375 7.53125C10.75 8 9.59375 9.03125 8.5 9.03125C7.375 9.03125 6.25 8 5.59375 7.53125C2.40625 5.21875 1.5 4.53125 0.78125 3.96875C0.65625 3.875 0.5 3.96875 0.5 4.125V10.5C0.5 11.3438 1.15625 12 2 12H15C15.8125 12 16.5 11.3438 16.5 10.5V4.125C16.5 3.96875 16.3125 3.875 16.1875 3.96875ZM8.5 8C9.21875 8.03125 10.25 7.09375 10.7812 6.71875C14.9375 3.71875 15.25 3.4375 16.1875 2.6875C16.375 2.5625 16.5 2.34375 16.5 2.09375V1.5C16.5 0.6875 15.8125 0 15 0H2C1.15625 0 0.5 0.6875 0.5 1.5V2.09375C0.5 2.34375 0.59375 2.5625 0.78125 2.6875C1.71875 3.4375 2.03125 3.71875 6.1875 6.71875C6.71875 7.09375 7.75 8.03125 8.5 8Z" />
</svg>
