<svg width="30" height="30" viewBox="0 0 30 30" fill="none" xmlns="http://www.w3.org/2000/svg">
<rect width="30" height="30" rx="15" fill="black" fill-opacity="0.5"/>
<path d="M22.6875 12.9688C21.9688 13.5312 21.0625 14.2188 17.875 16.5312C17.25 17 16.0938 18.0312 15 18.0312C13.875 18.0312 12.75 17 12.0938 16.5312C8.90625 14.2188 8 13.5312 7.28125 12.9688C7.15625 12.875 7 12.9688 7 13.125V19.5C7 20.3438 7.65625 21 8.5 21H21.5C22.3125 21 23 20.3438 23 19.5V13.125C23 12.9688 22.8125 12.875 22.6875 12.9688ZM15 17C15.7188 17.0312 16.75 16.0938 17.2812 15.7188C21.4375 12.7188 21.75 12.4375 22.6875 11.6875C22.875 11.5625 23 11.3438 23 11.0938V10.5C23 9.6875 22.3125 9 21.5 9H8.5C7.65625 9 7 9.6875 7 10.5V11.0938C7 11.3438 7.09375 11.5625 7.28125 11.6875C8.21875 12.4375 8.53125 12.7188 12.6875 15.7188C13.2188 16.0938 14.25 17.0312 15 17Z" fill="white"/>
</svg>
