<svg width="17" height="17" viewBox="0 0 17 17" fill="currentColor" xmlns="http://www.w3.org/2000/svg">
<path d="M16.2812 13.8438L13.1562 10.7188C13 10.5938 12.8125 10.5 12.625 10.5H12.125C12.9688 9.40625 13.5 8.03125 13.5 6.5C13.5 2.9375 10.5625 0 7 0C3.40625 0 0.5 2.9375 0.5 6.5C0.5 10.0938 3.40625 13 7 13C8.5 13 9.875 12.5 11 11.625V12.1562C11 12.3438 11.0625 12.5312 11.2188 12.6875L14.3125 15.7812C14.625 16.0938 15.0938 16.0938 15.375 15.7812L16.25 14.9062C16.5625 14.625 16.5625 14.1562 16.2812 13.8438ZM7 10.5C4.78125 10.5 3 8.71875 3 6.5C3 4.3125 4.78125 2.5 7 2.5C9.1875 2.5 11 4.3125 11 6.5C11 8.71875 9.1875 10.5 7 10.5Z"/>
</svg>
