<svg width="19" height="14" viewBox="0 0 19 14" xmlns="http://www.w3.org/2000/svg" fill="currentColor">
  <path d="M9.75 3.65625L4 8.40625V13.5C4 13.7812 4.21875 14 4.5 14H8C8.25 14 8.46875 13.7812 8.46875 13.5V10.5C8.46875 10.25 8.71875 10 8.96875 10H10.9688C11.25 10 11.4688 10.25 11.4688 10.5V13.5C11.4688 13.7812 11.7188 14 11.9688 14H15.5C15.75 14 16 13.7812 16 13.5V8.375L10.2188 3.65625C10.1562 3.59375 10.0625 3.5625 10 3.5625C9.90625 3.5625 9.8125 3.59375 9.75 3.65625ZM18.8438 6.875L16.25 4.71875V0.40625C16.25 0.1875 16.0625 0.03125 15.875 0.03125H14.125C13.9062 0.03125 13.75 0.1875 13.75 0.40625V2.65625L10.9375 0.34375C10.6875 0.15625 10.3438 0.03125 10 0.03125C9.625 0.03125 9.28125 0.15625 9.03125 0.34375L1.125 6.875C1.03125 6.9375 0.96875 7.0625 0.96875 7.15625C0.96875 7.25 1.03125 7.34375 1.0625 7.40625L1.875 8.375C1.9375 8.46875 2.03125 8.5 2.15625 8.5C2.25 8.5 2.34375 8.46875 2.40625 8.40625L9.75 2.375C9.8125 2.3125 9.90625 2.28125 10 2.28125C10.0625 2.28125 10.1562 2.3125 10.2188 2.375L17.5625 8.40625C17.625 8.46875 17.7188 8.5 17.8125 8.5C17.9375 8.5 18.0312 8.46875 18.0938 8.375L18.9062 7.40625C18.9688 7.34375 19 7.25 19 7.15625C19 7.0625 18.9375 6.9375 18.8438 6.875Z"/>
</svg>