<svg width="18" height="16" viewBox="0 0 18 16" fill="currentColor" xmlns="http://www.w3.org/2000/svg">
<path d="M15.3125 2.03125C13.5 0.5 10.7188 0.71875 9 2.5C7.25 0.71875 4.46875 0.5 2.65625 2.03125C0.3125 4 0.65625 7.21875 2.34375 8.9375L7.8125 14.5312C8.125 14.8438 8.53125 15.0312 9 15.0312C9.4375 15.0312 9.84375 14.8438 10.1562 14.5312L15.6562 8.9375C17.3125 7.21875 17.6562 4 15.3125 2.03125ZM14.5625 7.875L9.09375 13.4688C9.03125 13.5312 8.96875 13.5312 8.875 13.4688L3.40625 7.875C2.25 6.71875 2.03125 4.53125 3.625 3.1875C4.84375 2.15625 6.71875 2.3125 7.90625 3.5L9 4.625L10.0938 3.5C11.25 2.3125 13.125 2.15625 14.3438 3.15625C15.9375 4.53125 15.7188 6.71875 14.5625 7.875Z"/>
</svg>
