<svg width="22" height="22" viewBox="0 0 22 22" fill="none" xmlns="http://www.w3.org/2000/svg">
<path d="M21.4062 11.7031C21.125 10.8125 20.1406 10.3438 19.25 10.625L17.0938 11.3281L15.6875 7.10938L17.7969 6.40625C18.7344 6.125 19.2031 5.14062 18.875 4.25C18.5938 3.35938 17.6562 2.89062 16.7188 3.17188L14.6094 3.875L13.8594 1.67188C13.5781 0.78125 12.5938 0.3125 11.7031 0.59375C10.8125 0.921875 10.3438 1.85938 10.625 2.75L11.375 4.95312L7.01562 6.40625L6.26562 4.20312C5.98438 3.3125 5 2.84375 4.10938 3.17188C3.21875 3.45312 2.75 4.39062 3.03125 5.28125L3.78125 7.48438L1.625 8.1875C0.734375 8.51562 0.265625 9.45312 0.546875 10.3438C0.78125 11.0469 1.4375 11.4688 2.14062 11.5156C2.46875 11.5625 2.70312 11.4219 4.85938 10.7188L6.26562 14.9375L4.15625 15.6406C3.26562 15.9219 2.75 16.9062 3.07812 17.7969C3.3125 18.5 3.96875 18.9219 4.625 18.9688C4.95312 19.0156 5.1875 18.875 7.34375 18.1719L8.09375 20.375C8.32812 21.1719 9.21875 21.7344 10.25 21.4531C11.1406 21.1719 11.6094 20.1875 11.3281 19.2969L10.5781 17.0938L14.9375 15.6406L15.6875 17.8438C15.9688 18.6406 16.8594 19.2031 17.8438 18.9219C18.7344 18.5938 19.2031 17.6562 18.9219 16.7656L18.1719 14.5625L20.3281 13.8594C21.2188 13.5781 21.6875 12.5938 21.4062 11.7031ZM9.5 13.9062L8.04688 9.6875L12.4531 8.23438L13.8594 12.4531L9.5 13.9062Z" fill="#3291FF"/>
</svg>
