<svg width="17" height="19" viewBox="0 0 17 19" fill="none" xmlns="http://www.w3.org/2000/svg">
<path d="M15.9336 13.0117C15.2656 12.2734 13.9648 11.1836 13.9648 7.5625C13.9648 4.85547 12.0664 2.67578 9.46484 2.11328V1.375C9.46484 0.777344 8.97266 0.25 8.375 0.25C7.74219 0.25 7.25 0.777344 7.25 1.375V2.11328C4.64844 2.67578 2.75 4.85547 2.75 7.5625C2.75 11.1836 1.44922 12.2734 0.78125 13.0117C0.570312 13.2227 0.464844 13.5039 0.5 13.75C0.5 14.3477 0.921875 14.875 1.625 14.875H15.0898C15.793 14.875 16.2148 14.3477 16.25 13.75C16.25 13.5039 16.1445 13.2227 15.9336 13.0117ZM2.85547 13.1875C3.59375 12.2383 4.40234 10.5859 4.4375 7.59766C4.4375 7.59766 4.4375 7.59766 4.4375 7.5625C4.4375 5.41797 6.19531 3.625 8.375 3.625C10.5195 3.625 12.3125 5.41797 12.3125 7.5625C12.3125 7.59766 12.2773 7.59766 12.2773 7.59766C12.3125 10.5859 13.1211 12.2383 13.8594 13.1875H2.85547ZM8.375 18.25C9.60547 18.25 10.5898 17.2656 10.5898 16H6.125C6.125 17.2656 7.10938 18.25 8.375 18.25Z" fill="#6E6E6E"/>
</svg>
