<svg width="15" height="16" viewBox="0 0 15 16" fill="currentColor" xmlns="http://www.w3.org/2000/svg">
<path d="M7.5 16C8.59375 16 9.46875 15.125 9.46875 14H5.5C5.5 15.125 6.375 16 7.5 16ZM14.2188 11.3438C13.625 10.6875 12.4688 9.71875 12.4688 6.5C12.4688 4.09375 10.7812 2.15625 8.46875 1.65625V1C8.46875 0.46875 8.03125 0 7.5 0C6.9375 0 6.5 0.46875 6.5 1V1.65625C4.1875 2.15625 2.5 4.09375 2.5 6.5C2.5 9.71875 1.34375 10.6875 0.75 11.3438C0.5625 11.5312 0.46875 11.7812 0.5 12C0.5 12.5312 0.875 13 1.5 13H13.4688C14.0938 13 14.4688 12.5312 14.5 12C14.5 11.7812 14.4062 11.5312 14.2188 11.3438Z" />
</svg>
