<svg width="14" height="15" viewBox="0 0 14 15" fill="none" xmlns="http://www.w3.org/2000/svg">
<path d="M1.0625 9.0625C1.375 9.375 1.84375 9.34375 2.15625 9.0625L5.75 5.28125V14.25C5.75 14.6875 6.0625 15 6.5 15H7.5C7.90625 15 8.25 14.6875 8.25 14.25V5.28125L11.8125 9.03125C12.125 9.34375 12.5938 9.34375 12.9062 9.0625L13.5938 8.375C13.875 8.0625 13.875 7.59375 13.5938 7.3125L7.5 1.21875C7.21875 0.9375 6.75 0.9375 6.46875 1.21875L0.375 7.3125C0.09375 7.59375 0.09375 8.0625 0.375 8.375L1.0625 9.0625Z" fill="#3291FF"/>
</svg>
