<svg width="29" height="24" viewBox="0 0 29 24" fill="none" xmlns="http://www.w3.org/2000/svg">
<path d="M19.5508 7.78125C19.8555 7.78125 20.1602 7.78125 20.5156 7.83203C19.6523 3.87109 15.3867 0.875 10.5117 0.875C5.07812 0.875 0.660156 4.58203 0.660156 9.30469C0.660156 11.9961 2.13281 14.2305 4.57031 15.957L3.60547 18.9531L7.05859 17.2266C8.32812 17.4805 9.29297 17.7344 10.5117 17.7344C10.8672 17.7344 11.1211 17.6836 11.4766 17.6836C11.2734 17.0234 11.1211 16.3125 11.1211 15.6016C11.1211 11.2852 14.8281 7.78125 19.5508 7.78125ZM14.2188 5.08984C14.9805 5.08984 15.4375 5.59766 15.4375 6.35938C15.4375 7.07031 14.9805 7.57812 14.2188 7.57812C13.457 7.57812 12.7461 7.07031 12.7461 6.35938C12.7461 5.59766 13.5078 5.08984 14.2188 5.08984ZM7.3125 7.57812C6.55078 7.57812 5.83984 7.07031 5.83984 6.35938C5.83984 5.59766 6.55078 5.08984 7.3125 5.08984C8.07422 5.08984 8.53125 5.59766 8.53125 6.35938C8.53125 7.07031 8.07422 7.57812 7.3125 7.57812ZM28.5898 15.5C28.5898 11.5391 24.6289 8.33984 20.1602 8.33984C15.4375 8.33984 11.7812 11.5391 11.7812 15.5C11.7812 19.4609 15.4883 22.6602 20.1602 22.6602C21.125 22.6602 22.1406 22.4062 23.1562 22.1523L25.8477 23.6758L25.0859 21.1875C27.1172 19.7148 28.5898 17.7344 28.5898 15.5ZM17.418 14.2305C16.9609 14.2305 16.4531 13.7734 16.4531 13.2656C16.4531 12.7578 16.9609 12.25 17.418 12.25C18.1797 12.25 18.6875 12.7578 18.6875 13.2656C18.6875 13.7734 18.1797 14.2305 17.418 14.2305ZM22.9023 14.2305C22.3945 14.2305 21.8867 13.7734 21.8867 13.2656C21.8867 12.7578 22.3945 12.25 22.9023 12.25C23.6133 12.25 24.1211 12.7578 24.1211 13.2656C24.1211 13.7734 23.6133 14.2305 22.9023 14.2305Z" fill="white"/>
</svg>
